<?xml version="1.0" encoding="utf-8"?>
<!-- Generator: Adobe Illustrator 16.0.0, SVG Export Plug-In . SVG Version: 6.00 Build 0)  -->
<!DOCTYPE svg PUBLIC "-//W3C//DTD SVG 1.1//EN" "http://www.w3.org/Graphics/SVG/1.1/DTD/svg11.dtd">
<svg version="1.1" id="Calque_1" xmlns="http://www.w3.org/2000/svg" xmlns:xlink="http://www.w3.org/1999/xlink" x="0px" y="0px"
	 width="250px" height="40px" viewBox="0 0 250 40" enable-background="new 0 0 250 40" xml:space="preserve">
<g>
	<path fill="#FFFFFF" d="M23.751,8.493c-0.189,0.378-0.408,0.645-0.657,0.799c-0.25,0.155-0.546,0.232-0.89,0.232
		c-0.344,0-0.731-0.133-1.161-0.4c-0.43-0.266-0.938-0.563-1.521-0.89c-0.585-0.327-1.268-0.623-2.05-0.89
		c-0.783-0.267-1.707-0.4-2.772-0.4c-0.963,0-1.801,0.116-2.514,0.348c-0.713,0.232-1.315,0.555-1.805,0.967
		C9.89,8.673,9.524,9.167,9.284,9.744s-0.361,1.208-0.361,1.895c0,0.877,0.245,1.608,0.735,2.192
		c0.49,0.584,1.139,1.083,1.947,1.496c0.808,0.413,1.728,0.783,2.759,1.109c1.031,0.327,2.084,0.675,3.159,1.044
		c1.074,0.37,2.127,0.799,3.159,1.29c1.032,0.49,1.951,1.109,2.76,1.856c0.808,0.748,1.457,1.663,1.947,2.747
		c0.49,1.082,0.735,2.398,0.735,3.945c0,1.686-0.288,3.262-0.864,4.732c-0.576,1.47-1.418,2.75-2.527,3.842s-2.463,1.951-4.062,2.58
		c-1.599,0.627-3.43,0.941-5.493,0.941c-1.186,0-2.355-0.117-3.507-0.35c-1.152-0.232-2.257-0.563-3.314-0.992
		c-1.058-0.43-2.046-0.945-2.966-1.547c-0.92-0.602-1.741-1.273-2.463-2.012l2.012-3.327c0.189-0.241,0.417-0.442,0.683-0.606
		c0.267-0.162,0.563-0.244,0.89-0.244c0.429,0,0.894,0.176,1.393,0.528c0.498,0.353,1.087,0.743,1.766,1.173
		c0.679,0.431,1.479,0.822,2.398,1.174c0.919,0.353,2.024,0.529,3.314,0.529c1.977,0,3.507-0.469,4.59-1.406
		c1.083-0.937,1.625-2.282,1.625-4.035c0-0.98-0.245-1.779-0.735-2.398c-0.49-0.619-1.139-1.139-1.947-1.561
		c-0.809-0.422-1.728-0.777-2.76-1.07c-1.031-0.292-2.08-0.609-3.146-0.954c-1.066-0.344-2.115-0.757-3.146-1.237
		c-1.032-0.482-1.952-1.109-2.76-1.883c-0.808-0.773-1.457-1.741-1.947-2.901C2.669,15.133,2.424,13.702,2.424,12
		c0-1.358,0.271-2.682,0.812-3.972c0.542-1.289,1.332-2.433,2.373-3.43c1.04-0.997,2.316-1.796,3.83-2.398
		c1.513-0.602,3.241-0.902,5.184-0.902c2.201,0,4.229,0.344,6.086,1.031c1.857,0.688,3.438,1.65,4.745,2.889L23.751,8.493z"/>
	<path fill="#FFFFFF" d="M67.205,20.355c0,2.733-0.456,5.266-1.367,7.595c-0.912,2.329-2.192,4.345-3.842,6.048
		c-1.651,1.701-3.636,3.029-5.958,3.984c-2.321,0.953-4.891,1.432-7.71,1.432c-2.82,0-5.395-0.479-7.724-1.432
		c-2.33-0.955-4.324-2.283-5.983-3.984c-1.66-1.703-2.944-3.719-3.855-6.048c-0.912-2.329-1.367-4.861-1.367-7.595
		s0.455-5.265,1.367-7.595c0.911-2.33,2.196-4.345,3.855-6.047c1.659-1.702,3.653-3.03,5.983-3.984
		c2.329-0.954,4.904-1.431,7.724-1.431c2.819,0,5.39,0.481,7.71,1.444c2.321,0.963,4.307,2.292,5.958,3.984
		c1.65,1.694,2.931,3.705,3.842,6.035C66.749,15.09,67.205,17.622,67.205,20.355z M60.087,20.355c0-2.046-0.271-3.881-0.812-5.506
		c-0.542-1.625-1.32-3.004-2.334-4.139c-1.015-1.135-2.248-2.002-3.701-2.604c-1.453-0.602-3.091-0.903-4.913-0.903
		c-1.823,0-3.465,0.301-4.926,0.903c-1.461,0.602-2.704,1.47-3.727,2.604s-1.81,2.515-2.359,4.139
		c-0.551,1.625-0.825,3.46-0.825,5.506s0.274,3.881,0.825,5.506c0.55,1.625,1.336,3,2.359,4.126s2.265,1.99,3.727,2.592
		c1.461,0.603,3.103,0.903,4.926,0.903c1.822,0,3.459-0.301,4.913-0.903c1.453-0.602,2.686-1.466,3.701-2.592
		c1.014-1.126,1.792-2.501,2.334-4.126C59.816,24.236,60.087,22.401,60.087,20.355z"/>
	<path fill="#FFFFFF" d="M108.44,20.355c0,2.733-0.456,5.266-1.367,7.595c-0.912,2.329-2.192,4.345-3.842,6.048
		c-1.651,1.701-3.636,3.029-5.958,3.984c-2.321,0.953-4.891,1.432-7.71,1.432c-2.82,0-5.395-0.479-7.724-1.432
		c-2.33-0.955-4.324-2.283-5.983-3.984c-1.66-1.703-2.944-3.719-3.855-6.048c-0.912-2.329-1.367-4.861-1.367-7.595
		s0.455-5.265,1.367-7.595c0.911-2.33,2.196-4.345,3.855-6.047c1.659-1.702,3.653-3.03,5.983-3.984
		c2.329-0.954,4.904-1.431,7.724-1.431c2.819,0,5.39,0.481,7.71,1.444c2.321,0.963,4.307,2.292,5.958,3.984
		c1.65,1.694,2.931,3.705,3.842,6.035C107.985,15.09,108.44,17.622,108.44,20.355z M101.323,20.355c0-2.046-0.271-3.881-0.812-5.506
		c-0.542-1.625-1.32-3.004-2.334-4.139c-1.015-1.135-2.248-2.002-3.701-2.604c-1.453-0.602-3.091-0.903-4.913-0.903
		c-1.823,0-3.465,0.301-4.926,0.903c-1.461,0.602-2.704,1.47-3.727,2.604s-1.81,2.515-2.359,4.139
		c-0.551,1.625-0.825,3.46-0.825,5.506s0.274,3.881,0.825,5.506c0.55,1.625,1.336,3,2.359,4.126s2.265,1.99,3.727,2.592
		c1.461,0.603,3.103,0.903,4.926,0.903c1.822,0,3.459-0.301,4.913-0.903c1.453-0.602,2.686-1.466,3.701-2.592
		c1.014-1.126,1.792-2.501,2.334-4.126C101.052,24.236,101.323,22.401,101.323,20.355z"/>
	<path fill="#FFFFFF" d="M128.426,24.508V39h-6.936V24.508L107.899,1.71h6.112c0.602,0,1.079,0.146,1.432,0.438
		c0.352,0.292,0.648,0.662,0.89,1.109l6.834,12.456c0.395,0.74,0.739,1.44,1.031,2.102s0.559,1.311,0.8,1.947
		c0.223-0.653,0.477-1.311,0.761-1.973c0.283-0.662,0.623-1.354,1.018-2.076l6.783-12.456c0.189-0.378,0.473-0.731,0.852-1.058
		c0.377-0.326,0.859-0.49,1.443-0.49h6.139L128.426,24.508z"/>
	<path fill="#FFFFFF" d="M179.309,20.355c0,2.733-0.456,5.266-1.367,7.595s-2.192,4.345-3.843,6.048
		c-1.65,1.701-3.636,3.029-5.957,3.984c-2.321,0.953-4.892,1.432-7.711,1.432s-5.394-0.479-7.724-1.432
		c-2.329-0.955-4.323-2.283-5.982-3.984c-1.659-1.703-2.944-3.719-3.855-6.048s-1.367-4.861-1.367-7.595s0.456-5.265,1.367-7.595
		s2.196-4.345,3.855-6.047s3.653-3.03,5.982-3.984c2.33-0.954,4.904-1.431,7.724-1.431s5.39,0.481,7.711,1.444
		c2.321,0.963,4.307,2.292,5.957,3.984c1.65,1.694,2.932,3.705,3.843,6.035S179.309,17.622,179.309,20.355z M172.19,20.355
		c0-2.046-0.271-3.881-0.813-5.506c-0.541-1.625-1.319-3.004-2.334-4.139s-2.248-2.002-3.7-2.604
		c-1.453-0.602-3.091-0.903-4.913-0.903s-3.464,0.301-4.925,0.903c-1.462,0.602-2.704,1.47-3.727,2.604
		c-1.023,1.135-1.81,2.515-2.36,4.139c-0.55,1.625-0.825,3.46-0.825,5.506s0.275,3.881,0.825,5.506c0.551,1.625,1.337,3,2.36,4.126
		c1.022,1.126,2.265,1.99,3.727,2.592c1.461,0.603,3.103,0.903,4.925,0.903s3.46-0.301,4.913-0.903
		c1.452-0.602,2.686-1.466,3.7-2.592s1.793-2.501,2.334-4.126C171.92,24.236,172.19,22.401,172.19,20.355z"/>
	<path fill="#FFFFFF" d="M220.544,20.355c0,2.733-0.456,5.266-1.367,7.595s-2.192,4.345-3.843,6.048
		c-1.65,1.701-3.636,3.029-5.957,3.984c-2.321,0.953-4.892,1.432-7.711,1.432s-5.394-0.479-7.724-1.432
		c-2.329-0.955-4.323-2.283-5.982-3.984c-1.659-1.703-2.944-3.719-3.855-6.048s-1.367-4.861-1.367-7.595s0.456-5.265,1.367-7.595
		s2.196-4.345,3.855-6.047s3.653-3.03,5.982-3.984c2.33-0.954,4.904-1.431,7.724-1.431s5.39,0.481,7.711,1.444
		c2.321,0.963,4.307,2.292,5.957,3.984c1.65,1.694,2.932,3.705,3.843,6.035S220.544,17.622,220.544,20.355z M213.426,20.355
		c0-2.046-0.271-3.881-0.813-5.506c-0.541-1.625-1.319-3.004-2.334-4.139s-2.248-2.002-3.7-2.604
		c-1.453-0.602-3.091-0.903-4.913-0.903s-3.464,0.301-4.925,0.903c-1.462,0.602-2.704,1.47-3.727,2.604
		c-1.023,1.135-1.81,2.515-2.36,4.139c-0.55,1.625-0.825,3.46-0.825,5.506s0.275,3.881,0.825,5.506c0.551,1.625,1.337,3,2.36,4.126
		c1.022,1.126,2.265,1.99,3.727,2.592c1.461,0.603,3.103,0.903,4.925,0.903s3.46-0.301,4.913-0.903
		c1.452-0.602,2.686-1.466,3.7-2.592s1.793-2.501,2.334-4.126C213.155,24.236,213.426,22.401,213.426,20.355z"/>
	<path fill="#FFFFFF" d="M245.996,8.493c-0.189,0.378-0.408,0.645-0.657,0.799c-0.25,0.155-0.546,0.232-0.89,0.232
		c-0.345,0-0.731-0.133-1.161-0.4c-0.43-0.266-0.937-0.563-1.521-0.89c-0.584-0.327-1.268-0.623-2.05-0.89s-1.706-0.4-2.772-0.4
		c-0.963,0-1.801,0.116-2.514,0.348c-0.714,0.232-1.315,0.555-1.806,0.967s-0.855,0.907-1.096,1.483
		c-0.241,0.576-0.361,1.208-0.361,1.895c0,0.877,0.245,1.608,0.735,2.192c0.489,0.584,1.139,1.083,1.946,1.496
		c0.809,0.413,1.729,0.783,2.76,1.109c1.031,0.327,2.084,0.675,3.159,1.044c1.074,0.37,2.127,0.799,3.159,1.29
		c1.031,0.49,1.951,1.109,2.759,1.856c0.809,0.748,1.457,1.663,1.947,2.747c0.49,1.082,0.735,2.398,0.735,3.945
		c0,1.686-0.288,3.262-0.864,4.732c-0.576,1.47-1.418,2.75-2.527,3.842c-1.108,1.092-2.463,1.951-4.062,2.58
		c-1.599,0.627-3.43,0.941-5.493,0.941c-1.187,0-2.355-0.117-3.507-0.35c-1.152-0.232-2.257-0.563-3.314-0.992
		c-1.057-0.43-2.046-0.945-2.965-1.547c-0.92-0.602-1.741-1.273-2.463-2.012l2.011-3.327c0.189-0.241,0.417-0.442,0.684-0.606
		c0.267-0.162,0.563-0.244,0.89-0.244c0.43,0,0.894,0.176,1.393,0.528s1.088,0.743,1.767,1.173c0.679,0.431,1.479,0.822,2.398,1.174
		c0.92,0.353,2.024,0.529,3.313,0.529c1.978,0,3.508-0.469,4.591-1.406c1.083-0.937,1.625-2.282,1.625-4.035
		c0-0.98-0.245-1.779-0.735-2.398s-1.139-1.139-1.947-1.561c-0.808-0.422-1.728-0.777-2.759-1.07
		c-1.032-0.292-2.081-0.609-3.146-0.954c-1.066-0.344-2.114-0.757-3.146-1.237c-1.031-0.482-1.951-1.109-2.759-1.883
		c-0.809-0.773-1.457-1.741-1.947-2.901c-0.49-1.161-0.735-2.592-0.735-4.294c0-1.358,0.271-2.682,0.813-3.972
		c0.542-1.289,1.332-2.433,2.373-3.43c1.04-0.997,2.316-1.796,3.829-2.398c1.513-0.602,3.24-0.902,5.184-0.902
		c2.2,0,4.229,0.344,6.086,1.031c1.856,0.688,3.438,1.65,4.745,2.889L245.996,8.493z"/>
</g>
</svg>
