<?xml version="1.0" encoding="UTF-8" standalone="no"?>
<!-- Created with Inkscape (http://www.inkscape.org/) -->

<svg
   xmlns:dc="http://purl.org/dc/elements/1.1/"
   xmlns:cc="http://creativecommons.org/ns#"
   xmlns:rdf="http://www.w3.org/1999/02/22-rdf-syntax-ns#"
   xmlns:svg="http://www.w3.org/2000/svg"
   xmlns="http://www.w3.org/2000/svg"
   xmlns:sodipodi="http://sodipodi.sourceforge.net/DTD/sodipodi-0.dtd"
   xmlns:inkscape="http://www.inkscape.org/namespaces/inkscape"
   id="svg2"
   version="1.1"
   inkscape:version="0.48.4 r9939"
   width="1000"
   height="343.75"
   xml:space="preserve"
   sodipodi:docname="vector_h-dark-trans.eps"><metadata
     id="metadata8"><rdf:RDF><cc:Work
         rdf:about=""><dc:format>image/svg+xml</dc:format><dc:type
           rdf:resource="http://purl.org/dc/dcmitype/StillImage" /><dc:title></dc:title></cc:Work></rdf:RDF></metadata><defs
     id="defs6" /><sodipodi:namedview
     pagecolor="#ffffff"
     bordercolor="#666666"
     borderopacity="1"
     objecttolerance="10"
     gridtolerance="10"
     guidetolerance="10"
     inkscape:pageopacity="0"
     inkscape:pageshadow="2"
     inkscape:window-width="640"
     inkscape:window-height="480"
     id="namedview4"
     showgrid="false"
     inkscape:zoom="0.391"
     inkscape:cx="500"
     inkscape:cy="171.875"
     inkscape:window-x="51"
     inkscape:window-y="24"
     inkscape:window-maximized="0"
     inkscape:current-layer="g10" /><g
     id="g10"
     inkscape:groupmode="layer"
     inkscape:label="ink_ext_XXXXXX"
     transform="matrix(1.25,0,0,-1.25,0,343.75)"><path
       inkscape:connector-curvature="0"
       id="path14"
       style="fill:#354750;fill-opacity:1;fill-rule:evenodd;stroke:none"
       d="m 217.488,167.038 25.479,0 0,-26.05 12.888,0 c 5.95,0 12.067,1.061 17.704,2.971 2.769,0.937 5.873,2.243 8.607,3.885 -3.598,4.698 -5.434,10.629 -5.975,16.472 -0.732,7.951 0.868,18.301 6.25,24.523 l 2.678,3.099 3.192,-2.567 c 8.039,-6.459 14.794,-15.477 15.986,-25.762 9.678,2.845 21.035,2.172 29.568,-2.75 l 3.496,-2.017 -1.841,-3.596 C 328.307,141.17 313.229,136.806 298.484,137.58 276.422,82.6309 228.393,56.616 170.156,56.616 c -30.089,0 -57.692,11.2481 -73.4087,37.9371 l -0.2602,0.4399 -2.2867,4.657 c -5.3125,11.752 -7.0805,24.626 -5.8813,37.487 l 0.3579,3.851 21.791,0 0,26.05 25.48,0 0,25.478 50.96,0 0,25.484 30.58,0 0,-50.962" /><path
       inkscape:connector-curvature="0"
       id="path16"
       style="fill:#48addf;fill-opacity:1;fill-rule:nonzero;stroke:none"
       d="m 300.045,157.398 c 1.709,13.282 -8.229,23.711 -14.393,28.662 -7.103,-8.209 -8.207,-29.727 2.934,-38.788 -6.217,-5.522 -19.316,-10.53 -32.731,-10.53 l -163.3089,0 C 91.2434,122.74 93.702,109.845 99.3176,98.8031 l 1.8574,-3.3972 c 1.176,-1.9989 2.461,-3.9258 3.851,-5.777 l 0,0 c 6.713,-0.432 12.903,-0.5789 18.565,-0.4578 0.002,0 0.002,0 0.002,0 11.129,0.2488 20.211,1.5598 27.095,3.9488 1.025,0.3563 2.138,-0.191 2.494,-1.214 0.355,-1.0207 -0.188,-2.1411 -1.209,-2.4938 -0.914,-0.318 -1.871,-0.6109 -2.856,-0.898 0,0 -0.004,0 -0.006,0 -5.417,-1.5469 -11.229,-2.5891 -18.725,-3.0481 0.441,-0.009 -0.461,-0.0699 -0.467,-0.0699 -0.254,-0.016 -0.574,-0.05 -0.832,-0.0641 -2.951,-0.1691 -6.135,-0.2039 -9.391,-0.2039 -3.562,0 -7.07,0.0688 -10.99,0.268 l -0.102,-0.0641 c 13.61,-15.2961 34.883,-24.466 61.552,-24.466 56.44,0 104.315,25.0168 125.512,81.191 15.041,-1.544 29.498,2.289 36.074,15.126 -10.474,6.042 -23.943,4.115 -31.697,0.215" /><path
       inkscape:connector-curvature="0"
       id="path18"
       style="fill:#56beee;fill-opacity:1;fill-rule:nonzero;stroke:none"
       d="m 300.045,157.398 c 1.709,13.282 -8.229,23.711 -14.393,28.662 -7.103,-8.209 -8.207,-29.727 2.934,-38.788 -6.217,-5.522 -19.316,-10.53 -32.731,-10.53 l -153.637,0 c -0.668,-21.443 7.291,-37.724 21.373,-47.5709 0.002,0 0.002,0 0.002,0 11.129,0.2488 20.211,1.5598 27.095,3.9488 1.025,0.3563 2.138,-0.191 2.494,-1.214 0.355,-1.0207 -0.188,-2.1411 -1.209,-2.4938 -0.914,-0.318 -1.871,-0.6109 -2.856,-0.898 0,0 -0.004,0 -0.006,0 -5.417,-1.5469 -11.727,-2.72 -19.223,-3.1821 -0.006,0 -0.184,0.1731 -0.184,0.1731 19.206,-9.852 47.058,-9.818 78.993,2.4461 35.805,13.7548 69.121,39.9628 92.367,69.9368 -0.347,-0.162 -0.691,-0.321 -1.019,-0.49" /><path
       inkscape:connector-curvature="0"
       id="path20"
       style="fill:#388bbd;fill-opacity:1;fill-rule:nonzero;stroke:none"
       d="m 92.8547,119.729 c 1.0113,-7.504 3.2066,-14.528 6.4629,-20.9259 l 1.8574,-3.3972 c 1.176,-1.9989 2.461,-3.9258 3.851,-5.777 6.713,-0.432 12.903,-0.5789 18.567,-0.4578 11.129,0.2488 20.211,1.5598 27.095,3.9488 1.025,0.3563 2.138,-0.191 2.494,-1.214 0.355,-1.0207 -0.188,-2.1411 -1.209,-2.4938 -0.914,-0.318 -1.871,-0.6109 -2.856,-0.898 0,0 -0.004,0 -0.006,0 -5.417,-1.5469 -11.696,-2.6551 -19.192,-3.118 -0.254,-0.016 -0.703,-0.0191 -0.965,-0.032 -2.947,-0.1672 -6.101,-0.268 -9.355,-0.268 -3.563,0 -7.205,0.0668 -11.127,0.268 13.609,-15.2961 35.015,-24.4981 61.684,-24.4981 48.321,0 90.356,18.3391 114.756,58.863 l -192.0573,0" /><path
       inkscape:connector-curvature="0"
       id="path22"
       style="fill:#409ccb;fill-opacity:1;fill-rule:nonzero;stroke:none"
       d="m 103.688,119.729 c 2.887,-13.174 9.831,-23.511 19.905,-30.5579 11.129,0.2488 20.211,1.5598 27.095,3.9488 1.025,0.3563 2.138,-0.191 2.494,-1.214 0.355,-1.0207 -0.188,-2.1411 -1.209,-2.4938 -0.914,-0.318 -1.871,-0.6109 -2.856,-0.898 0,0 -0.004,0 -0.006,0 -5.417,-1.5469 -11.827,-2.6551 -19.325,-3.118 19.206,-9.852 46.98,-9.709 78.911,2.5551 19.315,7.425 37.905,18.4698 54.586,31.7778 l -159.595,0" /><path
       inkscape:connector-curvature="0"
       id="path24"
       style="fill:#46b0d7;fill-opacity:1;fill-rule:evenodd;stroke:none"
       d="m 114.714,162.791 22.082,0 0,-22.085 -22.082,0 0,22.085 z m 1.838,-1.842 1.744,0 0,-18.405 -1.744,0 0,18.405 z m 3.275,0 1.815,0 0,-18.405 -1.815,0 0,18.405 z m 3.348,0 1.812,0 0,-18.405 -1.812,0 0,18.405 z m 3.346,0 1.814,0 0,-18.405 -1.814,0 0,18.405 z m 3.345,0 1.813,0 0,-18.405 -1.813,0 0,18.405 z m 3.346,0 1.746,0 0,-18.405 -1.746,0 0,18.405" /><path
       inkscape:connector-curvature="0"
       id="path26"
       style="fill:#46b0d7;fill-opacity:1;fill-rule:evenodd;stroke:none"
       d="m 140.192,188.271 22.085,0 0,-22.084 -22.085,0 0,22.084 z m 1.842,-1.839 1.742,0 0,-18.404 -1.742,0 0,18.404 z m 3.279,0 1.811,0 0,-18.404 -1.811,0 0,18.404 z m 3.339,0 1.815,0 0,-18.404 -1.815,0 0,18.404 z m 3.35,0 1.811,0 0,-18.404 -1.811,0 0,18.404 z m 3.348,0 1.812,0 0,-18.404 -1.812,0 0,18.404 z m 3.343,0 1.746,0 0,-18.404 -1.746,0 0,18.404" /><path
       inkscape:connector-curvature="0"
       id="path28"
       style="fill:#58c8f1;fill-opacity:1;fill-rule:evenodd;stroke:none"
       d="m 140.192,162.791 22.085,0 0,-22.085 -22.085,0 0,22.085 z m 1.842,-1.842 1.742,0 0,-18.405 -1.742,0 0,18.405 z m 3.279,0 1.811,0 0,-18.405 -1.811,0 0,18.405 z m 3.339,0 1.815,0 0,-18.405 -1.815,0 0,18.405 z m 3.35,0 1.811,0 0,-18.405 -1.811,0 0,18.405 z m 3.348,0 1.812,0 0,-18.405 -1.812,0 0,18.405 z m 3.343,0 1.746,0 0,-18.405 -1.746,0 0,18.405" /><path
       inkscape:connector-curvature="0"
       id="path30"
       style="fill:#46b0d7;fill-opacity:1;fill-rule:evenodd;stroke:none"
       d="m 165.676,162.791 22.086,0 0,-22.085 -22.086,0 0,22.085 z m 1.838,-1.842 1.744,0 0,-18.405 -1.744,0 0,18.405 z m 3.277,0 1.813,0 0,-18.405 -1.813,0 0,18.405 z m 3.35,0 1.81,0 0,-18.405 -1.81,0 0,18.405 z m 3.345,0 1.811,0 0,-18.405 -1.811,0 0,18.405 z m 3.342,0 1.815,0 0,-18.405 -1.815,0 0,18.405 z m 3.35,0 1.742,0 0,-18.405 -1.742,0 0,18.405" /><path
       inkscape:connector-curvature="0"
       id="path32"
       style="fill:#58c8f1;fill-opacity:1;fill-rule:evenodd;stroke:none"
       d="m 165.676,188.271 22.086,0 0,-22.084 -22.086,0 0,22.084 z m 1.838,-1.839 1.744,0 0,-18.404 -1.744,0 0,18.404 z m 3.277,0 1.813,0 0,-18.404 -1.813,0 0,18.404 z m 3.35,0 1.81,0 0,-18.404 -1.81,0 0,18.404 z m 3.345,0 1.811,0 0,-18.404 -1.811,0 0,18.404 z m 3.342,0 1.815,0 0,-18.404 -1.815,0 0,18.404 z m 3.35,0 1.742,0 0,-18.404 -1.742,0 0,18.404" /><path
       inkscape:connector-curvature="0"
       id="path34"
       style="fill:#58c8f1;fill-opacity:1;fill-rule:evenodd;stroke:none"
       d="m 191.158,162.791 22.084,0 0,-22.085 -22.084,0 0,22.085 z m 1.838,-1.842 1.746,0 0,-18.405 -1.746,0 0,18.405 z m 3.279,0 1.813,0 0,-18.405 -1.813,0 0,18.405 z m 3.346,0 1.813,0 0,-18.405 -1.813,0 0,18.405 z m 3.346,0 1.812,0 0,-18.405 -1.812,0 0,18.405 z m 3.346,0 1.814,0 0,-18.405 -1.814,0 0,18.405 z m 3.345,0 1.746,0 0,-18.405 -1.746,0 0,18.405" /><path
       inkscape:connector-curvature="0"
       id="path36"
       style="fill:#46b0d7;fill-opacity:1;fill-rule:evenodd;stroke:none"
       d="m 191.158,188.271 22.084,0 0,-22.084 -22.084,0 0,22.084 z m 1.838,-1.839 1.746,0 0,-18.404 -1.746,0 0,18.404 z m 3.279,0 1.813,0 0,-18.404 -1.813,0 0,18.404 z m 3.346,0 1.813,0 0,-18.404 -1.813,0 0,18.404 z m 3.346,0 1.812,0 0,-18.404 -1.812,0 0,18.404 z m 3.346,0 1.814,0 0,-18.404 -1.814,0 0,18.404 z m 3.345,0 1.746,0 0,-18.404 -1.746,0 0,18.404" /><path
       inkscape:connector-curvature="0"
       id="path38"
       style="fill:#58c8f1;fill-opacity:1;fill-rule:evenodd;stroke:none"
       d="m 191.158,213.754 22.084,0 0,-22.085 -22.084,0 0,22.085 z m 1.838,-1.838 1.746,0 0,-18.406 -1.746,0 0,18.406 z m 3.279,0 1.813,0 0,-18.406 -1.813,0 0,18.406 z m 3.346,0 1.813,0 0,-18.406 -1.813,0 0,18.406 z m 3.346,0 1.812,0 0,-18.406 -1.812,0 0,18.406 z m 3.346,0 1.814,0 0,-18.406 -1.814,0 0,18.406 z m 3.345,0 1.746,0 0,-18.406 -1.746,0 0,18.406" /><path
       inkscape:connector-curvature="0"
       id="path40"
       style="fill:#46b0d7;fill-opacity:1;fill-rule:evenodd;stroke:none"
       d="m 216.639,162.791 22.082,0 0,-22.085 -22.082,0 0,22.085 z m 1.84,-1.842 1.742,0 0,-18.405 -1.742,0 0,18.405 z m 3.277,0 1.81,0 0,-18.405 -1.81,0 0,18.405 z m 3.346,0 1.812,0 0,-18.405 -1.812,0 0,18.405 z m 3.343,0 1.813,0 0,-18.405 -1.813,0 0,18.405 z m 3.35,0 1.81,0 0,-18.405 -1.81,0 0,18.405 z m 3.346,0 1.742,0 0,-18.405 -1.742,0 0,18.405" /><path
       inkscape:connector-curvature="0"
       id="path42"
       style="fill:#d7f2f2;fill-opacity:1;fill-rule:evenodd;stroke:none"
       d="m 160.896,104.898 c 3.366,0 6.094,-2.727 6.094,-6.089 0,-3.3692 -2.728,-6.093 -6.094,-6.093 -3.367,0 -6.091,2.7238 -6.091,6.093 0,3.362 2.724,6.089 6.091,6.089" /><path
       inkscape:connector-curvature="0"
       id="path44"
       style="fill:#354750;fill-opacity:1;fill-rule:evenodd;stroke:none"
       d="m 160.896,103.175 c 0.557,0 1.088,-0.11 1.577,-0.298 -0.53,-0.307 -0.887,-0.885 -0.887,-1.542 0,-0.984 0.795,-1.7799 1.779,-1.7799 0.674,0 1.26,0.3711 1.561,0.9269 0.215,-0.516 0.332,-1.08 0.332,-1.673 0,-2.411 -1.953,-4.3668 -4.362,-4.3668 -2.41,0 -4.365,1.9558 -4.365,4.3668 0,2.407 1.955,4.366 4.365,4.366" /><path
       inkscape:connector-curvature="0"
       id="path46"
       style="fill:#354750;fill-opacity:1;fill-rule:evenodd;stroke:none"
       d="m 53.1316,117.526 283.4174,0 c -6.174,1.567 -19.528,3.679 -17.322,11.767 -11.223,-12.985 -38.286,-9.109 -45.114,-2.707 -7.603,-11.031 -51.879,-6.838 -54.967,1.757 -9.533,-11.191 -39.078,-11.191 -48.615,0 -3.088,-8.595 -47.358,-12.788 -54.964,-1.757 -6.832,-6.402 -33.89,-10.278 -45.1107,2.707 2.2007,-8.088 -11.1528,-10.2 -17.3247,-11.767" /><path
       inkscape:connector-curvature="0"
       id="path48"
       style="fill:#c2e1e1;fill-opacity:1;fill-rule:nonzero;stroke:none"
       d="m 177.094,60.9949 c -15.09,7.161 -23.373,16.891 -27.983,27.5192 -5.602,-1.6 -12.339,-2.6211 -20.167,-3.0621 -2.951,-0.1668 -6.05,-0.2481 -9.306,-0.2481 -3.754,0 -7.707,0.1121 -11.856,0.3313 13.836,-13.8301 30.856,-24.475 62.374,-24.6692 2.324,0 4.639,0.0422 6.938,0.1289" /><path
       inkscape:connector-curvature="0"
       id="path50"
       style="fill:#d7f2f2;fill-opacity:1;fill-rule:nonzero;stroke:none"
       d="m 154.717,78.7102 c -2.088,2.8328 -4.112,6.3937 -5.6,9.8039 -5.608,-1.6 -12.345,-2.6211 -20.173,-3.0621 5.375,-2.9188 13.069,-5.6211 25.773,-6.7418" /><path
       inkscape:connector-curvature="0"
       id="path52"
       style="fill:#666666;fill-opacity:1;fill-rule:evenodd;stroke:none"
       d="m 405.893,146.762 0,24.804 c 0,3.26 2.035,5.882 5.41,5.882 l 0.933,0 c 3.375,0 5.403,-2.622 5.403,-5.882 l 0,-52.222 c 0,-12.734 -6.293,-22.8659 -17.254,-29.3241 -5.086,-2.9867 -10.705,-4.5238 -16.598,-4.5238 l -2.33,0 c -12.734,0 -22.855,6.2969 -29.318,17.2539 -3.002,5.086 -4.528,10.696 -4.528,16.594 l 0,2.331 c 0,12.735 6.293,22.862 17.25,29.33 5.088,3.003 10.698,4.528 16.596,4.528 l 2.33,0 c 8.619,0 15.938,-3.341 22.106,-8.771 z M 359.357,120.51 c 0,-9.201 4.459,-16.112 12.522,-20.5268 3.258,-1.7801 6.797,-2.7383 10.517,-2.7383 9.028,0 15.727,4.2581 20.346,11.9111 2.147,3.559 3.151,7.453 3.151,11.594 0,7.974 -3.778,14.196 -10.205,18.815 -3.895,2.807 -8.28,4.211 -13.065,4.211 -9.842,0 -16.924,-4.97 -21.176,-13.805 -1.435,-2.985 -2.09,-6.155 -2.09,-9.461 z m 99.036,35.023 1.628,0 c 13.612,0 23.961,-6.603 30.522,-18.486 2.623,-4.752 4.025,-9.94 4.025,-15.372 l 0,-2.331 c 0,-12.734 -6.279,-22.8831 -17.255,-29.3241 -5.086,-2.9808 -10.704,-4.5238 -16.594,-4.5238 l -2.326,0 c -12.737,0 -22.858,6.2969 -29.323,17.2539 -3,5.086 -4.527,10.696 -4.527,16.594 l 0,2.331 c 0,12.735 6.32,22.832 17.242,29.328 5.084,3.018 10.703,4.53 16.608,4.53 z M 436.287,120.51 c 0,-8.928 4.385,-15.496 11.93,-20.114 3.537,-2.1698 7.437,-3.1511 11.578,-3.1511 8.82,0 15.34,4.4721 19.883,11.9211 2.164,3.549 3.142,7.449 3.142,11.584 0,8.307 -3.998,14.644 -10.836,19.242 -3.746,2.522 -7.916,3.784 -12.427,3.784 -9.844,0 -16.926,-4.97 -21.174,-13.805 -1.44,-2.985 -2.096,-6.155 -2.096,-9.461 z M 543.4,142.839 c -1.767,0.829 -5.089,1.104 -7.005,1.178 -9.815,0.37 -16.916,-5.158 -21.084,-13.815 -1.438,-2.985 -2.09,-6.148 -2.09,-9.452 0,-10.063 5.279,-17.107 14.263,-21.402 3.28,-1.5648 7.514,-1.864 11.1,-1.864 3.154,0 7.611,1.9308 10.41,3.261 l 0.485,0.228 2.169,0 0.241,-0.047 c 2.675,-0.558 4.689,-2.2498 4.689,-5.1229 l 0,-1.1652 c 0,-7.15 -13.072,-8.791 -18.06,-9.1348 -17.6,-1.2199 -30.762,8.4457 -35.784,25.2329 -0.873,2.918 -1.263,5.813 -1.263,8.849 l 0,2.328 c 0,12.736 6.318,22.828 17.246,29.317 5.086,3.018 10.701,4.533 16.603,4.533 l 2.328,0 c 6.26,0 12.03,-1.778 17.198,-5.31 l 0.427,-0.293 0.264,-0.439 c 0.559,-0.927 1.041,-1.998 1.041,-3.1 l 0,-1.163 c 0,-2.999 -2.244,-4.609 -4.953,-5.132 l -0.223,-0.037 -0.693,0 c -1.754,0 -5.738,1.812 -7.309,2.55 z m 38.11,-7.956 c 4.56,4.57 9.142,9.129 13.773,13.624 1.289,1.253 6.176,6.559 8.098,6.559 l 2.107,0 0.237,-0.05 c 2.681,-0.556 4.691,-2.252 4.691,-5.131 l 0,-1.166 c 0,-1.963 -2.303,-4.247 -3.57,-5.591 -2.701,-2.86 -5.541,-5.627 -8.305,-8.431 l -14.189,-14.404 c 6.107,-6.126 12.212,-12.256 18.275,-18.428 1.676,-1.706 3.353,-3.417 5.006,-5.1478 0.58,-0.6113 1.445,-1.3774 1.933,-2.2274 0.526,-0.8 0.85,-1.6988 0.85,-2.6597 l 0,-1.209 -0.07,-0.2813 c -0.66,-2.6796 -2.362,-4.8437 -5.332,-4.8437 l -0.934,0 c -1.943,0 -4.139,2.2019 -5.469,3.4559 -2.742,2.5871 -5.394,5.3082 -8.086,7.948 l -9.015,8.854 0,-14.152 c 0,-3.254 -2.041,-5.8739 -5.412,-5.8739 l -0.928,0 c -3.371,0 -5.406,2.6199 -5.406,5.8739 l 0,79.738 c 0,3.261 2.035,5.87 5.406,5.87 l 0.928,0 c 3.371,0 5.412,-2.609 5.412,-5.87 l 0,-36.457 z m 146.412,20.183 1.164,0 c 3.523,0 5.877,-2.376 5.877,-5.879 0,-4.864 -4.649,-6.109 -8.67,-6.109 -5.279,0 -10.313,-3.191 -13.953,-6.771 -4.535,-4.476 -6.52,-10.198 -6.52,-16.495 l 0,-28.437 c 0,-3.2629 -2.037,-5.8789 -5.408,-5.8789 l -0.926,0 c -3.379,0 -5.414,2.616 -5.414,5.8789 l 0,30.07 c 0,11.549 5.621,20.971 14.992,27.587 5.6,3.95 12.004,6.034 18.858,6.034 z M 644.428,98.707 c 4.273,-1.4941 9.148,-1.2808 13.535,-0.5172 2.24,0.9543 7.98,3.4562 10.09,3.0922 l 0.332,-0.057 0.301,-0.149 c 1.287,-0.626 2.517,-1.51 3.175,-2.819 1.541,-3.0742 0.799,-6.1629 -2.218,-7.905 l -1.006,-0.5848 c -11.143,-6.432 -22.994,-5.5391 -34.104,0.4668 -5.31,2.8699 -9.371,7.1351 -12.369,12.331 l -0.701,1.212 c -7.154,12.387 -6.188,25.42 1.881,37.202 2.783,4.071 6.422,7.218 10.677,9.677 l 1.612,0.93 c 10.496,6.058 21.742,5.644 32.521,0.327 5.793,-2.859 10.487,-7.122 13.721,-12.725 l 0.584,-1.006 c 2.35,-4.078 -0.695,-7.625 -3.838,-10.052 -3.648,-2.811 -7.33,-6.198 -10.826,-9.215 C 660,112.186 652.221,105.44 644.428,98.707 z m -10.09,7.084 c 8.723,7.477 17.439,14.957 26.133,22.465 2.97,2.56 6.228,5.217 9.179,7.915 -2.367,2.976 -6.318,5.128 -9.675,6.408 -6.776,2.581 -13.455,1.712 -19.67,-1.873 -8.133,-4.694 -11.602,-12.176 -11.297,-21.482 0.123,-3.663 1.107,-7.195 3.055,-10.315 0.683,-1.099 1.451,-2.133 2.275,-3.118" /></g></svg>